<svg width="1522" height="394" viewBox="0 0 1522 394" fill="none" xmlns="http://www.w3.org/2000/svg">
<path d="M1523 327.25C1438.28 329.612 1353.56 331.973 1268.83 347.584C1184.11 363.195 1099.39 392.055 1014.67 393.334C929.944 394.613 845.222 368.311 760.5 362.834C675.778 357.357 591.056 372.7 506.333 373.001C421.611 373.301 336.889 358.565 252.167 342.501C167.444 326.436 82.7222 309.054 -2.00001 291.667L-2.00004 -53.9994C82.7221 -53.9994 167.444 -53.9994 252.167 -53.9994C336.889 -53.9994 421.611 -53.9994 506.333 -53.9994C591.056 -53.9994 675.778 -53.9994 760.5 -53.9994C845.222 -53.9995 929.944 -53.9995 1014.67 -53.9995C1099.39 -53.9995 1184.11 -53.9995 1268.83 -53.9995C1353.56 -53.9995 1438.28 -53.9995 1523 -53.9995L1523 327.25Z" fill="#A154F2" fill-opacity="0.19"/>
<path d="M1523 306.917C1442 359.5 1353.56 357.838 1268.83 337.417C1184.11 316.996 1099.39 278.653 1014.67 261.167C929.944 243.682 845.222 247.049 760.5 256.084C675.778 265.119 591.056 279.828 506.333 306.917C421.611 334.007 336.889 373.476 252.167 367.917C167.444 362.358 82.7222 311.76 -2.00001 261.167L-2.00004 -53.9993C82.7221 -53.9993 167.444 -53.9993 252.167 -53.9993C336.889 -53.9993 421.611 -53.9993 506.333 -53.9993C591.056 -53.9993 675.778 -53.9993 760.5 -53.9994C845.222 -53.9994 929.944 -53.9994 1014.67 -53.9994C1099.39 -53.9994 1184.11 -53.9994 1268.83 -53.9994C1353.56 -53.9994 1438.28 -53.9994 1523 -53.9994L1523 306.917Z" fill="#A154F2" fill-opacity="0.19"/>
<path d="M1523 240.834C1438.28 260.905 1353.56 280.976 1268.83 296.75C1184.11 312.525 1099.39 324.009 1014.67 317.084C929.944 310.158 845.222 284.835 760.5 261.167C675.778 237.5 591.056 215.499 506.333 220.501C421.611 225.502 336.889 257.516 252.167 271.334C167.444 285.152 82.7222 280.785 -2 276.417L-2.00003 -53.9995C82.7221 -53.9995 167.444 -53.9995 252.167 -53.9995C336.889 -53.9995 421.611 -53.9995 506.333 -53.9995C591.056 -53.9995 675.778 -53.9995 760.5 -53.9995C845.222 -53.9995 929.944 -53.9996 1014.67 -53.9996C1099.39 -53.9996 1184.11 -53.9996 1268.83 -53.9996C1353.56 -53.9996 1438.28 -53.9996 1523 -53.9996L1523 240.834Z" fill="#A154F2" fill-opacity="0.19"/>
<path d="M1523 205.249C1438.28 220.936 1353.56 236.629 1268.83 240.832C1184.11 245.036 1099.39 237.761 1014.67 250.999C929.944 264.238 845.222 297.99 760.5 286.583C675.778 275.175 591.056 218.603 506.333 210.333C421.611 202.063 336.889 242.101 252.167 261.166C167.444 280.231 82.7222 278.324 -2 276.416L-2.00003 -54.0008C82.7221 -54.0008 167.444 -54.0008 252.167 -54.0008C336.889 -54.0008 421.611 -54.0008 506.333 -54.0008C591.056 -54.0008 675.778 -54.0008 760.5 -54.0008C845.222 -54.0008 929.944 -54.0008 1014.67 -54.0008C1099.39 -54.0008 1184.11 -54.0009 1268.83 -54.0009C1353.56 -54.0009 1438.28 -54.0009 1523 -54.0009L1523 205.249Z" fill="#A154F2" fill-opacity="0.19"/>
<path d="M1523 220.502C1438.28 189.493 1353.56 158.48 1268.83 164.585C1184.11 170.69 1099.39 213.91 1014.67 220.502C929.944 227.094 845.222 197.064 760.5 200.168C675.778 203.273 591.056 239.523 506.333 235.752C421.611 231.98 336.889 188.198 252.167 184.918C167.444 181.639 82.7222 218.862 -2 256.085L-2.00003 -53.9982C82.7221 -53.9982 167.444 -53.9982 252.167 -53.9982C336.889 -53.9982 421.611 -53.9983 506.333 -53.9983C591.056 -53.9983 675.778 -53.9983 760.5 -53.9983C845.222 -53.9983 929.944 -53.9983 1014.67 -53.9983C1099.39 -53.9983 1184.11 -53.9983 1268.83 -53.9983C1353.56 -53.9983 1438.28 -53.9983 1523 -53.9984L1523 220.502Z" fill="#A154F2" fill-opacity="0.19"/>
<path d="M1523 184.918C1438.28 214.155 1353.56 243.392 1268.83 245.918C1184.11 248.443 1099.39 224.251 1014.67 200.168C929.944 176.085 845.222 152.1 760.5 159.501C675.778 166.902 591.056 205.677 506.333 205.251C421.611 204.825 336.889 165.186 252.167 159.501C167.444 153.817 82.7222 182.076 -2 210.334L-2.00003 -53.9989C82.7221 -53.9989 167.444 -53.9989 252.167 -53.9989C336.889 -53.9989 421.611 -53.9989 506.333 -53.9989C591.056 -53.9989 675.778 -53.9989 760.5 -53.9989C845.222 -53.9989 929.944 -53.9989 1014.67 -53.9989C1099.39 -53.999 1184.11 -53.999 1268.83 -53.999C1353.56 -53.999 1438.28 -53.999 1523 -53.999L1523 184.918Z" fill="#A154F2" fill-opacity="0.19"/>
<path d="M1523 174.75C1438.28 185.671 1353.56 196.592 1268.83 190.001C1184.11 183.409 1099.39 159.309 1014.67 164.584C929.944 169.859 845.222 204.518 760.5 200.167C675.778 195.816 591.056 152.466 506.333 129.001C421.611 105.535 336.889 101.966 252.167 108.667C167.444 115.369 82.7222 132.351 -2 149.334L-2.00002 -53.9994C82.7221 -53.9994 167.444 -53.9994 252.167 -53.9994C336.889 -53.9994 421.611 -53.9994 506.333 -53.9994C591.056 -53.9994 675.778 -53.9994 760.5 -53.9994C845.222 -53.9995 929.944 -53.9995 1014.67 -53.9995C1099.39 -53.9995 1184.11 -53.9995 1268.83 -53.9995C1353.56 -53.9995 1438.28 -53.9995 1523 -53.9995L1523 174.75Z" fill="#A154F2" fill-opacity="0.19"/>
<path d="M1523 184.918C1438.28 175.56 1353.56 166.203 1268.83 144.251C1184.11 122.3 1099.39 87.7608 1014.67 98.5014C929.944 109.242 845.222 165.262 760.5 169.668C675.778 174.074 591.056 126.864 506.333 103.585C421.611 80.3053 336.889 80.9557 252.167 83.2514C167.444 85.5471 82.7222 89.4826 -2.00001 93.4181L-2.00002 -53.9986C82.7221 -53.9986 167.444 -53.9986 252.167 -53.9986C336.889 -53.9986 421.611 -53.9986 506.333 -53.9986C591.056 -53.9986 675.778 -53.9986 760.5 -53.9986C845.222 -53.9986 929.944 -53.9986 1014.67 -53.9986C1099.39 -53.9987 1184.11 -53.9987 1268.83 -53.9987C1353.56 -53.9987 1438.28 -53.9987 1523 -53.9987L1523 184.918Z" fill="#A154F2" fill-opacity="0.19"/>
<path d="M1523 37.5004C1438.28 30.9358 1353.56 24.3766 1268.83 37.5004C1184.11 50.6241 1099.39 83.4417 1014.67 88.3338C929.944 93.2258 845.222 70.2032 760.5 68.0004C675.778 65.7977 591.056 84.4147 506.333 98.5005C421.611 112.586 336.889 122.13 252.167 113.75C167.444 105.371 82.7222 79.0581 -2.00001 52.7505L-2.00001 -53.9995C82.7222 -53.9995 167.444 -53.9995 252.167 -53.9995C336.889 -53.9995 421.611 -53.9995 506.333 -53.9995C591.056 -53.9995 675.778 -53.9995 760.5 -53.9996C845.222 -53.9996 929.944 -53.9996 1014.67 -53.9996C1099.39 -53.9996 1184.11 -53.9996 1268.83 -53.9996C1353.56 -53.9996 1438.28 -53.9996 1523 -53.9996L1523 37.5004Z" fill="#A154F2" fill-opacity="0.19"/>
<path d="M1523 103.585C1438.28 99.2723 1353.56 94.9652 1268.83 83.2516C1184.11 71.5381 1099.39 52.4237 1014.67 42.585C929.944 32.7463 845.222 32.1942 760.5 27.335C675.778 22.4758 591.056 13.3204 506.333 7.00172C421.611 0.683095 336.889 -2.79328 252.167 12.085C167.444 26.9634 82.7222 60.1909 -2 93.4184L-2.00001 -53.9982C82.7222 -53.9983 167.444 -53.9983 252.167 -53.9983C336.889 -53.9983 421.611 -53.9983 506.333 -53.9983C591.056 -53.9983 675.778 -53.9983 760.5 -53.9983C845.222 -53.9983 929.944 -53.9983 1014.67 -53.9983C1099.39 -53.9983 1184.11 -53.9984 1268.83 -53.9984C1353.56 -53.9984 1438.28 -53.9984 1523 -53.9984L1523 103.585Z" fill="#A154F2" fill-opacity="0.19"/>
</svg>
